<svg xmlns="http://www.w3.org/2000/svg" width="23" height="23" viewBox="0 0 23 23">
  <metadata><?xpacket begin="﻿" id="W5M0MpCehiHzreSzNTczkc9d"?>
<x:xmpmeta xmlns:x="adobe:ns:meta/" x:xmptk="Adobe XMP Core 5.6-c138 79.159824, 2016/09/14-01:09:01        ">
   <rdf:RDF xmlns:rdf="http://www.w3.org/1999/02/22-rdf-syntax-ns#">
      <rdf:Description rdf:about=""/>
   </rdf:RDF>
</x:xmpmeta>
                                                                                                    
                                                                                                    
                                                                                                    
                                                                                                    
                                                                                                    
                                                                                                    
                                                                                                    
                                                                                                    
                                                                                                    
                                                                                                    
                                                                                                    
                                                                                                    
                                                                                                    
                                                                                                    
                                                                                                    
                                                                                                    
                                                                                                    
                                                                                                    
                                                                                                    
                                                                                                    
                           
<?xpacket end="w"?></metadata>
<defs>
    <style>
      .cls-1 {
        fill: #45413e;
        fill-rule: evenodd;
        opacity: 0.5;
      }
    </style>
  </defs>
  <path id="Profile_User_Outline._Attribute_as_Situ_Herrera_from_Flaticon.com" data-name="Profile User Outline. Attribute as Situ Herrera from Flaticon.com" class="cls-1" d="M1153.5,562.812c3.57,0,6.47-3.547,6.47-7.906s-2.9-7.906-6.47-7.906a5.922,5.922,0,0,0-4.63,2.375,8.839,8.839,0,0,0-1.84,5.532C1147.03,559.265,1149.93,562.812,1153.5,562.812Zm0-14.374c2.77,0,5.03,2.9,5.03,6.469s-2.26,6.469-5.03,6.469-5.03-2.9-5.03-6.469S1150.73,548.438,1153.5,548.438Zm5.03,12.937a0.719,0.719,0,1,0,0,1.437,5.033,5.033,0,0,1,5.03,5.032,0.719,0.719,0,0,1-.72.719h-18.68a0.719,0.719,0,0,1-.72-0.719,5.039,5.039,0,0,1,5.03-5.032,0.719,0.719,0,1,0,0-1.437,6.475,6.475,0,0,0-6.47,6.469,2.161,2.161,0,0,0,2.16,2.156h18.68a2.161,2.161,0,0,0,2.16-2.156A6.475,6.475,0,0,0,1158.53,561.375Z" transform="translate(-1142 -547)"/>
</svg>
