<svg xmlns="http://www.w3.org/2000/svg" width="18" height="16" viewBox="0 0 18 16">
  <metadata><?xpacket begin="﻿" id="W5M0MpCehiHzreSzNTczkc9d"?>
<x:xmpmeta xmlns:x="adobe:ns:meta/" x:xmptk="Adobe XMP Core 5.6-c138 79.159824, 2016/09/14-01:09:01        ">
   <rdf:RDF xmlns:rdf="http://www.w3.org/1999/02/22-rdf-syntax-ns#">
      <rdf:Description rdf:about=""/>
   </rdf:RDF>
</x:xmpmeta>
                                                                                                    
                                                                                                    
                                                                                                    
                                                                                                    
                                                                                                    
                                                                                                    
                                                                                                    
                                                                                                    
                                                                                                    
                                                                                                    
                                                                                                    
                                                                                                    
                                                                                                    
                                                                                                    
                                                                                                    
                                                                                                    
                                                                                                    
                                                                                                    
                                                                                                    
                                                                                                    
                           
<?xpacket end="w"?></metadata>
<defs>
    <style>
      .cls-1 {
        fill-rule: evenodd;
      }
    </style>
  </defs>
  <path id="g_" data-name="g+" class="cls-1" d="M1151.62,2942.5h-2.71v-2.69a0.376,0.376,0,0,0-.37-0.37h-0.78a0.369,0.369,0,0,0-.37.37v2.69h-2.72a0.369,0.369,0,0,0-.37.37v0.76a0.378,0.378,0,0,0,.37.38h2.72v2.68a0.363,0.363,0,0,0,.37.37h0.78a0.369,0.369,0,0,0,.37-0.37v-2.68h2.71a0.38,0.38,0,0,0,.38-0.38v-0.76A0.371,0.371,0,0,0,1151.62,2942.5Zm-9.12,2.35a3.036,3.036,0,0,1-1.09-1.17c0-.32.02-0.48,0.77-1.05a3.53,3.53,0,0,0,1.49-2.76,3.659,3.659,0,0,0-.78-2.36h0.38a0.41,0.41,0,0,0,.22-0.07l1.07-.77a0.365,0.365,0,0,0,.14-0.41,0.384,0.384,0,0,0-.36-0.26h-4.78a4.8,4.8,0,0,0-1.57.27,4.069,4.069,0,0,0-2.96,3.57,3.817,3.817,0,0,0,3.91,3.8,1.725,1.725,0,0,0-.07.5,1.781,1.781,0,0,0,.26.94h-0.06a5.22,5.22,0,0,0-4.78,2.57,2.817,2.817,0,0,0-.29,1.2,2.24,2.24,0,0,0,.3,1.12,4.245,4.245,0,0,0,2.77,1.77,9.187,9.187,0,0,0,2.19.26,7.308,7.308,0,0,0,1.96-.26,3.853,3.853,0,0,0,3.11-3.51A3.637,3.637,0,0,0,1142.5,2944.85Zm-6.03,3.5c0-1.11,1.43-2.09,3.06-2.09h0.04a3.815,3.815,0,0,1,1.02.16c0.11,0.07.22,0.15,0.33,0.22a2.745,2.745,0,0,1,1.38,1.38,1.372,1.372,0,0,1,.05.4c0,1.38-1.04,2.08-3.1,2.08C1137.69,2950.5,1136.47,2949.56,1136.47,2948.35Zm1.48-10.5a1.259,1.259,0,0,1,.96-0.44h0.05c1.05,0.03,2.06,1.2,2.25,2.6a2.562,2.562,0,0,1-.47,1.97,1.3,1.3,0,0,1-.98.44h-0.01c-1.04-.03-2.07-1.24-2.25-2.64A2.412,2.412,0,0,1,1137.95,2937.85Z" transform="translate(-1134 -2936)"/>
</svg>
