<svg xmlns="http://www.w3.org/2000/svg" width="13" height="16" viewBox="0 0 13 16">
  <metadata><?xpacket begin="﻿" id="W5M0MpCehiHzreSzNTczkc9d"?>
<x:xmpmeta xmlns:x="adobe:ns:meta/" x:xmptk="Adobe XMP Core 5.6-c138 79.159824, 2016/09/14-01:09:01        ">
   <rdf:RDF xmlns:rdf="http://www.w3.org/1999/02/22-rdf-syntax-ns#">
      <rdf:Description rdf:about=""/>
   </rdf:RDF>
</x:xmpmeta>
                                                                                                    
                                                                                                    
                                                                                                    
                                                                                                    
                                                                                                    
                                                                                                    
                                                                                                    
                                                                                                    
                                                                                                    
                                                                                                    
                                                                                                    
                                                                                                    
                                                                                                    
                                                                                                    
                                                                                                    
                                                                                                    
                                                                                                    
                                                                                                    
                                                                                                    
                                                                                                    
                           
<?xpacket end="w"?></metadata>
<defs>
    <style>
      .cls-1 {
        fill-rule: evenodd;
      }
    </style>
  </defs>
  <path id="p" class="cls-1" d="M1214.89,2936c-4.58,0-6.89,3.13-6.89,5.74a3.5,3.5,0,0,0,1.98,3.51,0.329,0.329,0,0,0,.48-0.23c0.04-.16.15-0.56,0.2-0.73a0.459,0.459,0,0,0-.14-0.52,2.551,2.551,0,0,1-.64-1.8,4.465,4.465,0,0,1,4.75-4.4c2.59,0,4.01,1.51,4.01,3.52,0,2.65-1.23,4.89-3.06,4.89a1.444,1.444,0,0,1-1.52-1.77,19.061,19.061,0,0,0,.85-3.26,1.249,1.249,0,0,0-1.3-1.38,2.128,2.128,0,0,0-1.86,2.37,3.407,3.407,0,0,0,.31,1.46s-1.06,4.26-1.24,5.01a9.709,9.709,0,0,0-.03,3.49,0.128,0.128,0,0,0,.23.05,9.872,9.872,0,0,0,1.74-3c0.12-.41.68-2.53,0.68-2.53a2.788,2.788,0,0,0,2.36,1.14c3.1,0,5.2-2.69,5.2-6.29C1221,2938.54,1218.58,2936,1214.89,2936Z" transform="translate(-1208 -2936)"/>
</svg>
